<svg xmlns="http://www.w3.org/2000/svg" version="1.1" xmlns:xlink="http://www.w3.org/1999/xlink" xmlns:svgjs="http://svgjs.com/svgjs" width="512" height="512" x="0" y="0" viewBox="0 0 512 512" style="enable-background:new 0 0 512 512" xml:space="preserve" class=""><g>
<g>
	<g>
		<path d="M260.979,87.169c-4.512-1.601-9.629-1.495-12.024,1.773l-50.753,68.345c-0.295,0.444-0.59,0.889-0.677,1.133
			c-1.385,3.901,3.394,8.618,7.662,10.133c2.683,0.952,5.058,0.834,6.49-1.266l10.389-14.573l27.923,9.91l-1.122,17.862
			c-0.213,2.532,1.557,4.121,4.24,5.073c4.267,1.514,10.993,0.744,12.335-3.036c0.13-0.366,0.138-0.775,0.189-1.306l3.686-85.048
			C269.518,92.122,265.612,88.814,260.979,87.169z M250.988,148.974l-21.216-7.53l23.893-33.668L250.988,148.974z" fill="#fbe206" data-original="#000000" class=""></path>
	</g>
</g>
<g>
	<g>
		<path d="M169.421,400.027l-0.69-2.628c-3.287-12.514-9.825-16.014-18.247-17.012c5.876-4.62,8.106-12.429,5.41-22.691
			c-4.667-17.77-17.923-18.837-30.938-15.418l-24.152,6.343c-3.629,0.953-6.673,3.625-5.785,7.005l21.364,81.341
			c0.69,2.628,4.068,4.282,8.448,3.132l26.53-6.968C165.502,429.417,174.549,419.55,169.421,400.027z M119.149,381.795
			l-5.588-21.274l13.89-3.648c6.382-1.676,11.188,1.343,12.898,7.85c1.676,6.382-0.427,11.617-7.185,13.392L119.149,381.795z
			 M144.235,419.752l-14.14,3.714l-7.592-28.907l14.141-3.714c7.632-2.005,13.057,0.316,15.621,10.077l0.526,2.002
			C155.289,412.435,151.869,417.747,144.235,419.752z" fill="#fbe206" data-original="#000000" class=""></path>
	</g>
</g>
<g>
	<g>
		<path d="M414.517,394.699c-4.399,0-8.022,1.294-8.281,5.305c-0.388,5.434-1.423,13.844-13.197,13.844
			c-8.927,0-13.844-4.788-13.844-14.88V362.87c0.001-10.091,4.918-14.879,13.586-14.879c12.292,0,13.197,8.799,13.456,12.81
			c0.129,3.881,3.623,5.304,8.41,5.304c5.693,0,8.41-1.553,8.41-8.281c0-15.009-12.809-24.583-30.794-24.583
			c-16.302,0-29.888,8.022-29.888,29.63v36.098c0,21.608,13.456,29.629,29.759,29.629c18.114,0,30.923-9.962,30.923-25.618
			C423.057,396.382,420.34,394.699,414.517,394.699z" fill="#fbe206" data-original="#000000" class=""></path>
	</g>
</g>
<g>
	<g>
		<path d="M333.56,36.406L215.84,2.217c-29.482-8.568-60.43,8.456-68.992,37.937L135.75,78.366
			c-1.155,3.975,1.132,8.133,5.107,9.288c3.974,1.156,8.134-1.131,9.288-5.107l11.099-38.212
			c3.031-10.435,9.944-19.066,19.466-24.302c9.522-5.236,20.513-6.452,30.95-3.421L329.379,50.8
			c21.543,6.258,33.979,28.874,27.723,50.417l-34.189,117.72c-6.257,21.542-28.875,33.979-50.417,27.723l-117.72-34.189
			c-10.436-3.031-19.067-9.945-24.303-19.467c-5.236-9.522-6.451-20.514-3.42-30.949l13.214-45.497
			c1.154-3.975-1.133-8.133-5.107-9.288c-3.972-1.154-8.133,1.132-9.288,5.107l-13.213,45.497
			c-4.148,14.281-2.486,29.322,4.68,42.353c7.165,13.031,18.977,22.491,33.257,26.639l117.72,34.189
			c5.166,1.501,10.376,2.215,15.504,2.215c24.135-0.001,46.427-15.838,53.489-40.152l34.189-117.72
			C380.059,75.918,363.041,44.968,333.56,36.406z" fill="#fbe206" data-original="#000000" class=""></path>
	</g>
</g>
<g>
	<g>
		<path d="M257.86,427.849l-19.574-121.011c-2.374-14.681-10.324-27.557-22.384-36.258c-12.06-8.702-26.788-12.187-41.466-9.811
			L53.425,280.343c-30.305,4.902-50.971,33.544-46.069,63.848l6.524,40.336c0.661,4.086,4.513,6.872,8.596,6.202
			c4.086-0.661,6.863-4.509,6.202-8.595l-6.524-40.336c-3.582-22.145,11.52-43.076,33.666-46.658l121.011-19.574
			c10.725-1.733,21.488,0.811,30.302,7.17c8.813,6.358,14.621,15.768,16.356,26.495l19.574,121.011
			c3.582,22.145-11.52,43.077-33.666,46.659L88.386,496.475c-10.728,1.731-21.489-0.811-30.302-7.17
			c-8.812-6.358-14.621-15.768-16.356-26.495l-7.461-46.128c-0.661-4.086-4.512-6.871-8.596-6.202
			c-4.086,0.661-6.863,4.509-6.202,8.595l7.461,46.128c2.374,14.681,10.324,27.557,22.383,36.258
			C58.902,508.379,70.175,512,81.771,512c2.989,0,6-0.241,9.009-0.728l121.011-19.574
			C242.096,486.796,262.762,458.153,257.86,427.849z" fill="#fbe206" data-original="#000000" class=""></path>
	</g>
</g>
<g>
	<g>
		<path d="M449.69,264.845H327.105c-30.699,0-55.674,24.975-55.674,55.673v40.906c0,4.14,3.356,7.495,7.495,7.495
			c4.139,0,7.495-3.355,7.495-7.495v-40.906c0-22.432,18.251-40.683,40.684-40.683H449.69c22.433,0,40.684,18.251,40.684,40.683
			v122.584c0,22.433-18.251,40.684-40.684,40.684H327.105c-22.433,0-40.684-18.251-40.684-40.684v-46.701
			c0-4.14-3.356-7.495-7.495-7.495c-4.139,0-7.495,3.355-7.495,7.495v46.701c0,30.698,24.975,55.674,55.674,55.674H449.69
			c30.699,0,55.674-24.976,55.674-55.674V320.518C505.364,289.82,480.389,264.845,449.69,264.845z" fill="#fbe206" data-original="#000000" class=""></path>
	</g>
</g>
<g>
</g>
<g>
</g>
<g>
</g>
<g>
</g>
<g>
</g>
<g>
</g>
<g>
</g>
<g>
</g>
<g>
</g>
<g>
</g>
<g>
</g>
<g>
</g>
<g>
</g>
<g>
</g>
<g>
</g>
</g></svg>