<svg xmlns="http://www.w3.org/2000/svg" version="1.1" xmlns:xlink="http://www.w3.org/1999/xlink" xmlns:svgjs="http://svgjs.com/svgjs" width="512" height="512" x="0" y="0" viewBox="0 0 682.66669 682.66669" style="enable-background:new 0 0 512 512" xml:space="preserve"><g><defs id="defs637"><clipPath clipPathUnits="userSpaceOnUse" id="clipPath647"><path d="M 0,512 H 512 V 0 H 0 Z" id="path645" fill="#000000" data-original="#000000"></path></clipPath></defs><g id="g639" transform="matrix(1.3333333,0,0,-1.3333333,0,682.66667)"><g id="g641"><g id="g643" clip-path="url(#clipPath647)"><g id="g649" transform="translate(104.9878,72.8398)"><path d="m 0,0 v 15.581 c 0,64.319 52.141,116.46 116.459,116.46 h 69.106 c 64.319,0 116.459,-52.141 116.459,-116.46 V -64.84 H 0 V -30" style="stroke:#000000;stroke-width:15;stroke-linecap:round;stroke-linejoin:round;stroke-miterlimit:10;stroke-dasharray:none;stroke-opacity:1" id="path651" fill="none" stroke="#000000" stroke-width="15" stroke-linecap="round" stroke-linejoin="round" stroke-miterlimit="10" stroke-dasharray="none" stroke-opacity="" data-original="#000000"></path></g><g id="g653" transform="translate(164.6455,74.0234)"><path d="M 0,0 V -66.023" style="stroke:#000000;stroke-width:15;stroke-linecap:round;stroke-linejoin:round;stroke-miterlimit:10;stroke-dasharray:none;stroke-opacity:1" id="path655" fill="none" stroke="#000000" stroke-width="15" stroke-linecap="round" stroke-linejoin="round" stroke-miterlimit="10" stroke-dasharray="none" stroke-opacity="" data-original="#000000"></path></g><g id="g657" transform="translate(347.3545,74.0234)"><path d="M 0,0 V -66.023" style="stroke:#000000;stroke-width:15;stroke-linecap:round;stroke-linejoin:round;stroke-miterlimit:10;stroke-dasharray:none;stroke-opacity:1" id="path659" fill="none" stroke="#000000" stroke-width="15" stroke-linecap="round" stroke-linejoin="round" stroke-miterlimit="10" stroke-dasharray="none" stroke-opacity="" data-original="#000000"></path></g><g id="g661" transform="translate(284.1416,273.6709)"><path d="M 0,0 C 0,0 -6.156,-14.95 -28.142,-14.95 -50.127,-14.95 -56.283,0 -56.283,0" style="stroke:#000000;stroke-width:15;stroke-linecap:round;stroke-linejoin:round;stroke-miterlimit:10;stroke-dasharray:none;stroke-opacity:1" id="path663" fill="none" stroke="#000000" stroke-width="15" stroke-linecap="round" stroke-linejoin="round" stroke-miterlimit="10" stroke-dasharray="none" stroke-opacity="" data-original="#000000"></path></g><g id="g665" transform="translate(210.1987,328.4507)"><path d="M 0,0 V -21.19" style="stroke:#000000;stroke-width:15;stroke-linecap:round;stroke-linejoin:round;stroke-miterlimit:10;stroke-dasharray:none;stroke-opacity:1" id="path667" fill="none" stroke="#000000" stroke-width="15" stroke-linecap="round" stroke-linejoin="round" stroke-miterlimit="10" stroke-dasharray="none" stroke-opacity="" data-original="#000000"></path></g><g id="g669" transform="translate(301.8013,328.4507)"><path d="M 0,0 V -21.19" style="stroke:#000000;stroke-width:15;stroke-linecap:round;stroke-linejoin:round;stroke-miterlimit:10;stroke-dasharray:none;stroke-opacity:1" id="path671" fill="none" stroke="#000000" stroke-width="15" stroke-linecap="round" stroke-linejoin="round" stroke-miterlimit="10" stroke-dasharray="none" stroke-opacity="" data-original="#000000"></path></g><g id="g673" transform="translate(161.479,337.2832)"><path d="m 0,0 c -1.071,0.11 -2.159,0.167 -3.259,0.167 -17.407,0 -31.517,-14.11 -31.517,-31.517 0,-17.406 14.11,-31.517 31.517,-31.517 2.202,0 4.351,0.228 6.426,0.658" style="stroke:#000000;stroke-width:15;stroke-linecap:round;stroke-linejoin:round;stroke-miterlimit:10;stroke-dasharray:none;stroke-opacity:1" id="path675" fill="none" stroke="#000000" stroke-width="15" stroke-linecap="round" stroke-linejoin="round" stroke-miterlimit="10" stroke-dasharray="none" stroke-opacity="" data-original="#000000"></path></g><g id="g677" transform="translate(347.354,275.0737)"><path d="m 0,0 c 2.075,-0.43 4.224,-0.657 6.426,-0.657 17.407,0 31.517,14.11 31.517,31.517 0,17.406 -14.11,31.517 -31.517,31.517 -1.101,0 -2.188,-0.058 -3.259,-0.168" style="stroke:#000000;stroke-width:15;stroke-linecap:round;stroke-linejoin:round;stroke-miterlimit:10;stroke-dasharray:none;stroke-opacity:1" id="path679" fill="none" stroke="#000000" stroke-width="15" stroke-linecap="round" stroke-linejoin="round" stroke-miterlimit="10" stroke-dasharray="none" stroke-opacity="" data-original="#000000"></path></g><g id="g681" transform="translate(210.5967,490.8701)"><path d="m 0,0 c 7.116,3.67 15.034,7.078 24.322,9.822 48.668,14.374 83.125,-22.748 83.125,-22.748 0,0 49.323,4.762 53.554,-45.52 4.045,-48.06 -21.088,-67.519 -21.088,-67.519" style="stroke:#000000;stroke-width:15;stroke-linecap:round;stroke-linejoin:round;stroke-miterlimit:10;stroke-dasharray:none;stroke-opacity:1" id="path683" fill="none" stroke="#000000" stroke-width="15" stroke-linecap="round" stroke-linejoin="round" stroke-miterlimit="10" stroke-dasharray="none" stroke-opacity="" data-original="#000000"></path></g><g id="g685" transform="translate(350.5098,364.9048)"><path d="M 0,0 C -18.732,10.735 -36.099,41.959 -36.099,41.959 -54.166,7.501 -93.397,3.791 -93.397,3.791 c 3.613,17.493 -9.808,33.927 -9.808,33.927 -31.617,-36.645 -72.677,-39.425 -83.295,-39.16 -1.614,0.04 -3.212,0.303 -4.759,0.777 -24.742,7.573 -47.856,37.878 -47.856,37.878 35.815,-1.109 47.73,22.116 47.73,22.116 -36.596,-1.106 -39.1,36.648 -39.1,36.648 30.398,-3.964 47.402,4.157 64.678,14.654" style="stroke:#000000;stroke-width:15;stroke-linecap:round;stroke-linejoin:round;stroke-miterlimit:10;stroke-dasharray:none;stroke-opacity:1" id="path687" fill="none" stroke="#000000" stroke-width="15" stroke-linecap="round" stroke-linejoin="round" stroke-miterlimit="10" stroke-dasharray="none" stroke-opacity="" data-original="#000000"></path></g><g id="g689" transform="translate(238.48,171.0264)"><path d="M 0,0 -7.643,33.854" style="stroke:#000000;stroke-width:15;stroke-linecap:round;stroke-linejoin:round;stroke-miterlimit:10;stroke-dasharray:none;stroke-opacity:1" id="path691" fill="none" stroke="#000000" stroke-width="15" stroke-linecap="round" stroke-linejoin="round" stroke-miterlimit="10" stroke-dasharray="none" stroke-opacity="" data-original="#000000"></path></g><g id="g693" transform="translate(281.1626,204.8804)"><path d="M 0,0 -7.643,-33.854" style="stroke:#000000;stroke-width:15;stroke-linecap:round;stroke-linejoin:round;stroke-miterlimit:10;stroke-dasharray:none;stroke-opacity:1" id="path695" fill="none" stroke="#000000" stroke-width="15" stroke-linecap="round" stroke-linejoin="round" stroke-miterlimit="10" stroke-dasharray="none" stroke-opacity="" data-original="#000000"></path></g><g id="g697" transform="translate(281.772,125.7988)"><path d="m 0,0 -8.252,45.228 h -35.04 L -51.544,0" style="stroke:#000000;stroke-width:15;stroke-linecap:round;stroke-linejoin:round;stroke-miterlimit:10;stroke-dasharray:none;stroke-opacity:1" id="path699" fill="none" stroke="#000000" stroke-width="15" stroke-linecap="round" stroke-linejoin="round" stroke-miterlimit="10" stroke-dasharray="none" stroke-opacity="" data-original="#000000"></path></g><g id="g701" transform="translate(318.8135,119.6528)"><path d="M 0,0 49.998,55.015" style="stroke:#000000;stroke-width:15;stroke-linecap:round;stroke-linejoin:round;stroke-miterlimit:10;stroke-dasharray:none;stroke-opacity:1" id="path703" fill="none" stroke="#000000" stroke-width="15" stroke-linecap="round" stroke-linejoin="round" stroke-miterlimit="10" stroke-dasharray="none" stroke-opacity="" data-original="#000000"></path></g><g id="g705" transform="translate(143.189,174.6675)"><path d="m 0,0 101.71,-111.917 c 5.952,-6.548 16.25,-6.548 22.202,0 l 31.525,34.69" style="stroke:#000000;stroke-width:15;stroke-linecap:round;stroke-linejoin:round;stroke-miterlimit:10;stroke-dasharray:none;stroke-opacity:1" id="path707" fill="none" stroke="#000000" stroke-width="15" stroke-linecap="round" stroke-linejoin="round" stroke-miterlimit="10" stroke-dasharray="none" stroke-opacity="" data-original="#000000"></path></g><g id="g709" transform="translate(342.5327,192.6558)"><path d="M 0,0 -86.533,-95.215 -173.065,0" style="stroke:#000000;stroke-width:15;stroke-linecap:round;stroke-linejoin:round;stroke-miterlimit:10;stroke-dasharray:none;stroke-opacity:1" id="path711" fill="none" stroke="#000000" stroke-width="15" stroke-linecap="round" stroke-linejoin="round" stroke-miterlimit="10" stroke-dasharray="none" stroke-opacity="" data-original="#000000"></path></g><g id="g713" transform="translate(161.479,363.7134)"><path d="m 0,0 v -64.313 c 0,-52.202 42.319,-94.52 94.521,-94.52 52.203,0 94.521,42.318 94.521,94.52 V 1.2 c -0.001,-10e-4 -0.011,-0.009 -0.011,-0.009" style="stroke:#000000;stroke-width:15;stroke-linecap:round;stroke-linejoin:round;stroke-miterlimit:10;stroke-dasharray:none;stroke-opacity:1" id="path715" fill="none" stroke="#000000" stroke-width="15" stroke-linecap="round" stroke-linejoin="round" stroke-miterlimit="10" stroke-dasharray="none" stroke-opacity="" data-original="#000000"></path></g></g></g></g></g></svg>