<svg xmlns="http://www.w3.org/2000/svg" version="1.1" xmlns:xlink="http://www.w3.org/1999/xlink" xmlns:svgjs="http://svgjs.com/svgjs" width="512" height="512" x="0" y="0" viewBox="0 0 682.66669 682.66669" style="enable-background:new 0 0 512 512" xml:space="preserve" class=""><g><defs id="defs2365"><clipPath clipPathUnits="userSpaceOnUse" id="clipPath2375"><path d="M 0,512 H 512 V 0 H 0 Z" id="path2373" fill="#000000" data-original="#000000" class=""></path></clipPath><clipPath clipPathUnits="userSpaceOnUse" id="clipPath2387"><path d="M 0,512 H 512 V 0 H 0 Z" id="path2385" fill="#000000" data-original="#000000" class=""></path></clipPath></defs><g id="g2367" transform="matrix(1.3333333,0,0,-1.3333333,0,682.66667)"><g id="g2369"><g id="g2371" clip-path="url(#clipPath2375)"><g id="g2377" transform="translate(559.187,315.1885)"><path d="m 0,0 c -52.267,205.156 59.213,150.339 59.213,150.339 10.524,20.396 25.854,28.841 41.872,30.878 1.41,0.174 2.82,0.304 4.24,0.391 0.113,0 0.226,0.009 0.339,0.018 11.282,0.601 22.703,-1.689 32.854,-4.954 3.534,-1.14 6.92,-2.393 10.089,-3.691 12.753,-5.214 22.041,-11.072 23.992,-12.326" style="stroke:#000000;stroke-width:15;stroke-linecap:round;stroke-linejoin:round;stroke-miterlimit:10;stroke-dasharray:none;stroke-opacity:1" id="path2379" fill="none" stroke="#000000" stroke-width="15" stroke-linecap="round" stroke-linejoin="round" stroke-miterlimit="10" stroke-dasharray="none" stroke-opacity="" data-original="#000000" class=""></path></g></g></g><g id="g2381"><g id="g2383" clip-path="url(#clipPath2387)"><g id="g2389" transform="translate(309.6782,160.5303)"><path d="m 0,0 c 27.302,-27.302 10.056,-57.792 10.056,-57.792 -33.584,6.887 -52.398,25.13 -52.398,25.13 0,0 -18.814,-18.243 -52.398,-25.13 0,0 -17.246,30.49 10.056,57.792" style="stroke:#000000;stroke-width:15;stroke-linecap:round;stroke-linejoin:round;stroke-miterlimit:10;stroke-dasharray:none;stroke-opacity:1" id="path2391" fill="none" stroke="#000000" stroke-width="15" stroke-linecap="round" stroke-linejoin="round" stroke-miterlimit="10" stroke-dasharray="none" stroke-opacity="" data-original="#000000" class=""></path></g><g id="g2393" transform="translate(309.6567,161.1831)"><path d="m 0,0 c 0.018,-0.217 0.018,-0.435 0.018,-0.653 0,-18.037 -18.952,-32.662 -42.334,-32.662 -23.382,0 -42.342,14.625 -42.342,32.662 0,0.218 0,0.436 0.017,0.653" style="stroke:#000000;stroke-width:15;stroke-linecap:round;stroke-linejoin:round;stroke-miterlimit:10;stroke-dasharray:none;stroke-opacity:1" id="path2395" fill="none" stroke="#000000" stroke-width="15" stroke-linecap="round" stroke-linejoin="round" stroke-miterlimit="10" stroke-dasharray="none" stroke-opacity="" data-original="#000000" class=""></path></g><g id="g2397" transform="translate(351.5908,75.8809)"><path d="m 0,0 v -23.095 h -43.101 c -22.443,0 -40.636,-18.193 -40.636,-40.636 v -4.65 H 31.937 c 13.092,0 23.704,10.613 23.704,23.704 l 0,44.677 z" style="stroke:#000000;stroke-width:15;stroke-linecap:round;stroke-linejoin:round;stroke-miterlimit:10;stroke-dasharray:none;stroke-opacity:1" id="path2399" fill="none" stroke="#000000" stroke-width="15" stroke-linecap="round" stroke-linejoin="round" stroke-miterlimit="10" stroke-dasharray="none" stroke-opacity="" data-original="#000000" class=""></path></g><g id="g2401" transform="translate(267.3403,127.8682)"><path d="M 0,0 V -51.692" style="stroke:#000000;stroke-width:15;stroke-linecap:round;stroke-linejoin:round;stroke-miterlimit:10;stroke-dasharray:none;stroke-opacity:1" id="path2403" fill="none" stroke="#000000" stroke-width="15" stroke-linecap="round" stroke-linejoin="round" stroke-miterlimit="10" stroke-dasharray="none" stroke-opacity="" data-original="#000000" class=""></path></g><g id="g2405" transform="translate(238.8237,250.7056)"><path d="m 0,0 c 5.062,-10.665 15.934,-18.032 28.512,-18.032 12.579,0 23.451,7.367 28.512,18.032" style="stroke:#000000;stroke-width:15;stroke-linecap:round;stroke-linejoin:round;stroke-miterlimit:10;stroke-dasharray:none;stroke-opacity:1" id="path2407" fill="none" stroke="#000000" stroke-width="15" stroke-linecap="round" stroke-linejoin="round" stroke-miterlimit="10" stroke-dasharray="none" stroke-opacity="" data-original="#000000" class=""></path></g><g id="g2409" transform="translate(214.8472,301.9985)"><path d="m 0,0 c 0,-10.269 -5.549,-18.593 -12.395,-18.593 -6.846,0 -12.396,8.324 -12.396,18.593 0,10.269 5.55,18.593 12.396,18.593 C -5.549,18.593 0,10.269 0,0" style="fill-opacity:1;fill-rule:nonzero;stroke:none" id="path2411" fill="#000000" data-original="#000000" class=""></path></g><g id="g2413" transform="translate(214.8472,301.9985)"><path d="m 0,0 c 0,-10.269 -5.549,-18.593 -12.395,-18.593 -6.846,0 -12.396,8.324 -12.396,18.593 0,10.269 5.55,18.593 12.396,18.593 C -5.549,18.593 0,10.269 0,0 Z" style="stroke:#000000;stroke-width:0.5;stroke-linecap:butt;stroke-linejoin:miter;stroke-miterlimit:10;stroke-dasharray:none;stroke-opacity:1" id="path2415" fill="none" stroke="#000000" stroke-width="0.5" stroke-linecap="butt" stroke-linejoin="miter" stroke-miterlimit="10" stroke-dasharray="none" stroke-opacity="" data-original="#000000" class=""></path></g><g id="g2417" transform="translate(344.6157,301.9985)"><path d="m 0,0 c 0,-10.269 -5.549,-18.593 -12.396,-18.593 -6.845,0 -12.395,8.324 -12.395,18.593 0,10.269 5.55,18.593 12.395,18.593 C -5.549,18.593 0,10.269 0,0" style="fill-opacity:1;fill-rule:nonzero;stroke:none" id="path2419" fill="#000000" data-original="#000000" class=""></path></g><g id="g2421" transform="translate(344.6157,301.9985)"><path d="m 0,0 c 0,-10.269 -5.549,-18.593 -12.396,-18.593 -6.845,0 -12.395,8.324 -12.395,18.593 0,10.269 5.55,18.593 12.395,18.593 C -5.549,18.593 0,10.269 0,0 Z" style="stroke:#000000;stroke-width:0.5;stroke-linecap:butt;stroke-linejoin:miter;stroke-miterlimit:10;stroke-dasharray:none;stroke-opacity:1" id="path2423" fill="none" stroke="#000000" stroke-width="0.5" stroke-linecap="butt" stroke-linejoin="miter" stroke-miterlimit="10" stroke-dasharray="none" stroke-opacity="" data-original="#000000" class=""></path></g><g id="g2425" transform="translate(127.8086,321.77)"><path d="M 0,0 C -0.26,-6.65 -0.46,-13.3 -0.59,-19.95" style="stroke:#000000;stroke-width:15;stroke-linecap:round;stroke-linejoin:round;stroke-miterlimit:10;stroke-dasharray:none;stroke-opacity:1" id="path2427" fill="none" stroke="#000000" stroke-width="15" stroke-linecap="round" stroke-linejoin="round" stroke-miterlimit="10" stroke-dasharray="none" stroke-opacity="" data-original="#000000" class=""></path></g><g id="g2429" transform="translate(400.6187,398.73)"><path d="m 0,0 c 6.63,-54.24 8.54,-108.48 5.77,-162.73 -1.68,-32.48 -23.03,-59.59 -52.39,-69.75 h -0.01 c -6.91,-2.39 -14.26,-3.84 -21.9,-4.2 -43.17,-2.03 -86.34,-2.03 -129.51,0 -7.64,0.37 -15,1.81 -21.9,4.2 -7.85,2.72 -15.13,6.65 -21.61,11.57" style="stroke:#000000;stroke-width:15;stroke-linecap:round;stroke-linejoin:round;stroke-miterlimit:10;stroke-dasharray:none;stroke-opacity:1" id="path2431" fill="none" stroke="#000000" stroke-width="15" stroke-linecap="round" stroke-linejoin="round" stroke-miterlimit="10" stroke-dasharray="none" stroke-opacity="" data-original="#000000" class=""></path></g><g id="g2433" transform="translate(127.8184,321.77)"><path d="m 0,0 c 44.88,0 53.54,59.22 53.54,59.22 36.48,-36.47 108.85,-45.16 159.8,-25.47 3.1,1.2 6.26,2.63 9.45,4.28" style="stroke:#000000;stroke-width:15;stroke-linecap:round;stroke-linejoin:round;stroke-miterlimit:10;stroke-dasharray:none;stroke-opacity:1" id="path2435" fill="none" stroke="#000000" stroke-width="15" stroke-linecap="round" stroke-linejoin="round" stroke-miterlimit="10" stroke-dasharray="none" stroke-opacity="" data-original="#000000" class=""></path></g><g id="g2437" transform="translate(385.1787,453.96)"><path d="M 0,0 C 0.98,1.26 39.57,50.25 56.72,27.77 70.32,9.95 32.12,-45.24 -9.55,-77.81" style="stroke:#000000;stroke-width:15;stroke-linecap:round;stroke-linejoin:round;stroke-miterlimit:10;stroke-dasharray:none;stroke-opacity:1" id="path2439" fill="none" stroke="#000000" stroke-width="15" stroke-linecap="round" stroke-linejoin="round" stroke-miterlimit="10" stroke-dasharray="none" stroke-opacity="" data-original="#000000" class=""></path></g><g id="g2441" transform="translate(385.1587,453.9399)"><path d="M 0,0 C 0,0 0.01,0.01 0.02,0.02 0.56,1.18 23.94,50.56 -8.1,50.56 -40.02,50.56 -57.35,6.06 -57.89,4.67" style="stroke:#000000;stroke-width:15;stroke-linecap:round;stroke-linejoin:round;stroke-miterlimit:10;stroke-dasharray:none;stroke-opacity:1" id="path2443" fill="none" stroke="#000000" stroke-width="15" stroke-linecap="round" stroke-linejoin="round" stroke-miterlimit="10" stroke-dasharray="none" stroke-opacity="" data-original="#000000" class=""></path></g><g id="g2445" transform="translate(327.2588,458.5801)"><path d="m 0,0 c 0,0 0,0.01 0.01,0.03 0.39,1.43 12.34,45.89 -11.59,45.89 -24.31,0 -44.19,-56.15 -72.95,-66.77" style="stroke:#000000;stroke-width:15;stroke-linecap:round;stroke-linejoin:round;stroke-miterlimit:10;stroke-dasharray:none;stroke-opacity:1" id="path2447" fill="none" stroke="#000000" stroke-width="15" stroke-linecap="round" stroke-linejoin="round" stroke-miterlimit="10" stroke-dasharray="none" stroke-opacity="" data-original="#000000" class=""></path></g><g id="g2449" transform="translate(407.3135,260.8228)"><path d="m 0,0 h 0.196 c 16.833,0 30.472,13.651 30.472,30.472 0,16.833 -13.639,30.484 -30.472,30.484 -0.219,0 -0.438,0 -0.657,-0.012" style="stroke:#000000;stroke-width:15;stroke-linecap:butt;stroke-linejoin:round;stroke-miterlimit:10;stroke-dasharray:none;stroke-opacity:1" id="path2451" fill="none" stroke="#000000" stroke-width="15" stroke-linecap="butt" stroke-linejoin="round" stroke-miterlimit="10" stroke-dasharray="none" stroke-opacity="" data-original="#000000" class=""></path></g><g id="g2453" transform="translate(351.5908,75.8809)"><path d="M 0,0 V 15.104" style="stroke:#000000;stroke-width:15;stroke-linecap:round;stroke-linejoin:round;stroke-miterlimit:10;stroke-dasharray:none;stroke-opacity:1" id="path2455" fill="none" stroke="#000000" stroke-width="15" stroke-linecap="round" stroke-linejoin="round" stroke-miterlimit="10" stroke-dasharray="none" stroke-opacity="" data-original="#000000" class=""></path></g><g id="g2457" transform="translate(107.6484,317.6001)"><path d="m 0,0 c -50.77,202.31 59.83,147.93 59.83,147.93 10.52,20.39 25.85,28.84 41.87,30.87 1.41,0.18 2.82,0.31 4.24,0.4 0.11,0 0.22,0 0.34,0.01 11.28,0.6 22.7,-1.69 32.85,-4.95 3.53,-1.14 6.92,-2.39 10.09,-3.69 12.75,-5.22 22.04,-11.07 23.99,-12.33" style="stroke:#000000;stroke-width:15;stroke-linecap:round;stroke-linejoin:round;stroke-miterlimit:10;stroke-dasharray:none;stroke-opacity:1" id="path2459" fill="none" stroke="#000000" stroke-width="15" stroke-linecap="round" stroke-linejoin="round" stroke-miterlimit="10" stroke-dasharray="none" stroke-opacity="" data-original="#000000" class=""></path></g><g id="g2461" transform="translate(353.9888,166.25)"><path d="m 0,0 c 31.09,-11.53 53.25,-41.46 53.25,-76.57 v -58.48 c 0,-13.09 -10.61,-23.7 -23.71,-23.7 h -256.08 v 82.18 l 0.37,1.3 -29.72,97.23" style="stroke:#000000;stroke-width:15;stroke-linecap:round;stroke-linejoin:round;stroke-miterlimit:10;stroke-dasharray:none;stroke-opacity:1" id="path2463" fill="none" stroke="#000000" stroke-width="15" stroke-linecap="round" stroke-linejoin="round" stroke-miterlimit="10" stroke-dasharray="none" stroke-opacity="" data-original="#000000" class=""></path></g><g id="g2465" transform="translate(89.3486,216.8403)"><path d="m 0,0 -20.83,68.16 c -0.83,2.69 -1.22,5.42 -1.22,8.09 0,11.83 7.66,22.77 19.56,26.41 14.6,4.46 30.04,-3.75 34.5,-18.35 l 0.49,-1.6 10.78,4.55 c 3.28,1.38 6.78,-1.49 6.04,-4.99 l -6.8,-32.32 48.8,-159.65" style="stroke:#000000;stroke-width:15;stroke-linecap:round;stroke-linejoin:round;stroke-miterlimit:10;stroke-dasharray:none;stroke-opacity:1" id="path2467" fill="none" stroke="#000000" stroke-width="15" stroke-linecap="round" stroke-linejoin="round" stroke-miterlimit="10" stroke-dasharray="none" stroke-opacity="" data-original="#000000" class=""></path></g><g id="g2469" transform="translate(110.0688,149.0601)"><path d="M 0,0 53.12,15.26" style="stroke:#000000;stroke-width:15;stroke-linecap:round;stroke-linejoin:round;stroke-miterlimit:10;stroke-dasharray:none;stroke-opacity:1" id="path2471" fill="none" stroke="#000000" stroke-width="15" stroke-linecap="round" stroke-linejoin="round" stroke-miterlimit="10" stroke-dasharray="none" stroke-opacity="" data-original="#000000" class=""></path></g></g></g></g></g></svg>