<svg xmlns="http://www.w3.org/2000/svg" version="1.1" xmlns:xlink="http://www.w3.org/1999/xlink" xmlns:svgjs="http://svgjs.com/svgjs" width="512" height="512" x="0" y="0" viewBox="0 0 512 512" style="enable-background:new 0 0 512 512" xml:space="preserve" class=""><g><g><path d="m504.5 461.816h-25.955c.786-2.273 1.218-4.71 1.218-7.247v-14.062l31.725-163.753c2.218-11.452-6.94-22.662-18.659-22.662h-206.777c-5.692-40.225 17.774-78.807 17.774-119.064 0-75.684-65.767-135.028-139.202-135.028-29.269 0-55.837 6.325-78.967 18.799-8.535 4.603-1.414 17.805 7.12 13.202 20.918-11.281 45.091-17.001 71.847-17.001 65.199 0 124.203 52.622 124.203 120.028 0 40.574-22.858 78.243-17.911 119.064h-22.187c-13.594 0-9.513 11.312-21.307.788 21.342-19.051 34.81-46.784 34.81-77.615v-14.542c0-8.947-6.313-16.772-15.011-18.608-10.877-2.296-30.761-9.983-41.719-35.662-5.437-12.741-23.98-13.985-30.998-1.899-20.935 36.06-65.709 41.399-99.574 39.526-10.761-.592-20.101 8.217-20.101 19.001v12.185c0 30.829 13.465 58.56 34.805 77.611-21.795 19.505-34.569 47.695-34.569 77.144v64.005c-13.061-12.592-20.551-27.915-22.737-46.511-3.441-29.275 5.549-58.118 10.063-86.755 7.315-46.413-15.665-86.547-13.31-132.209 1.482-28.743 13.77-56.065 34.599-76.934 6.85-6.863-3.766-17.461-10.616-10.597-23.452 23.496-37.289 54.307-38.963 86.758-2.325 45.08 20.634 85.207 13.473 130.647-8.753 55.529-25.746 115.727 27.491 155.22v30.67.075c0 5.626 1.538 10.897 4.205 15.426h-51.77c-4.142 0-7.5 3.358-7.5 7.5v35.184c0 4.142 3.358 7.5 7.5 7.5h497c4.143 0 7.5-3.358 7.5-7.5v-35.184c0-4.142-3.357-7.5-7.5-7.5zm-255.772-192.724h244.101c2.817.363 4.128 1.966 3.933 4.809l-30.685 158.385h-252.266l30.984-159.932c.366-1.89 2.02-3.262 3.933-3.262zm-178.899-91.827v-12.185c0-2.103 2.163-4.151 4.273-4.023 68.958 3.812 99.712-23.441 113.374-46.973 1.146-1.097 3.296-1.93 4.229.255 13.623 31.923 38.688 41.553 52.417 44.451 1.801.38 3.109 2.034 3.109 3.932v14.542c0 49.041-39.791 88.938-88.701 88.938-48.91.001-88.701-39.896-88.701-88.937zm114.344 100.72c-4.799 9.395-14.597 15.826-25.643 15.826-11.047 0-20.845-6.431-25.644-15.826 8.204 2.1 16.796 3.219 25.644 3.219 8.847-.001 17.439-1.12 25.643-3.219zm-82.408-13.781c4.299 2.829 8.818 5.348 13.528 7.522 3.285 21.028 21.699 37.084 43.236 37.084 21.536 0 39.951-16.057 43.236-37.084 4.706-2.172 9.221-4.689 13.517-7.515 4.862 4.067 9.276 8.628 13.168 13.64l-29.919 154.435h-42.479c-5.7-2.942-12.154-4.614-18.995-4.614h-28.181v-93.325c0-9.697-15-9.697-15 0v21.979h-23.811v-24.306c0-26.126 11.761-51.099 31.7-67.816zm-17.577 197.612c-7.904-.71-14.123-7.386-14.123-15.501v-74.989h23.811v63.847c0 4.142 3.358 7.5 7.5 7.5h35.681c12.063 0 22.276 8.09 25.539 19.144h-78.408zm412.812 35.184h-482v-20.184h347.468c9.697 0 9.697-15 0-15h-184.48c-.965-5.252-2.912-10.16-5.647-14.529h32.377 260.045c.75 5.241.058 14.529-7.246 14.529h-53.919c-9.697 0-9.697 15 0 15h93.402z" fill="#000000" data-original="#000000" class=""></path><path d="m121.407 195.343c9.652 0 9.668-15 0-15-9.652 0-9.668 15 0 15z" fill="#000000" data-original="#000000" class=""></path><path d="m195.652 195.343c9.652 0 9.668-15 0-15-9.652 0-9.668 15 0 15z" fill="#000000" data-original="#000000" class=""></path><path d="m354.529 388.847c18.748 0 34-15.252 34-34s-15.252-34-34-34-34 15.252-34 34 15.252 34 34 34zm0-53c10.477 0 19 8.523 19 19s-8.523 19-19 19-19-8.523-19-19 8.524-19 19-19z" fill="#000000" data-original="#000000" class=""></path></g></g></svg>