<svg xmlns="http://www.w3.org/2000/svg" version="1.1" xmlns:xlink="http://www.w3.org/1999/xlink" xmlns:svgjs="http://svgjs.com/svgjs" width="512" height="512" x="0" y="0" viewBox="0 0 90 90" style="enable-background:new 0 0 512 512" xml:space="preserve" class=""><g><g clip-rule="evenodd" fill-rule="evenodd"><path d="m17.149 52.719c2.317 0 4.172 1.844 4.172 4.15 0 2.303-1.854 4.154-4.172 4.154-2.323 0-4.172-1.852-4.172-4.154.001-2.306 1.849-4.15 4.172-4.15zm0-2.266c-3.542 0-6.438 2.879-6.438 6.416 0 3.531 2.896 6.422 6.438 6.422 3.536 0 6.442-2.891 6.442-6.422.001-3.537-2.905-6.416-6.442-6.416z" fill="#ff690c" data-original="#000000" class=""></path><path d="m12.478 68.385h9.328c2.75 0 4.932 2.166 4.932 4.9v9.234h-3.609v-6.041h-2.271v6.041h-8.448v-6.041h-2.271v6.041h-2.589v-9.234c0-2.734 2.172-4.9 4.928-4.9zm0-2.266c-3.964 0-7.198 3.209-7.198 7.166v11.5h23.724v-11.5c0-3.957-3.234-7.166-7.197-7.166z" fill="#ff690c" data-original="#000000" class=""></path><path d="m72.868 52.719c2.317 0 4.166 1.844 4.166 4.15 0 2.303-1.849 4.154-4.166 4.154-2.323 0-4.172-1.852-4.172-4.154 0-2.306 1.849-4.15 4.172-4.15zm0-2.266c-3.542 0-6.448 2.879-6.448 6.416 0 3.531 2.906 6.422 6.448 6.422 3.536 0 6.438-2.891 6.438-6.422 0-3.537-2.902-6.416-6.438-6.416z" fill="#ff690c" data-original="#000000" class=""></path><path d="m68.186 68.385h9.339c2.75 0 4.922 2.166 4.922 4.9v9.234h-2.818v-6.391h-2.266v6.391h-8.994v-6.391h-2.266v6.391h-2.839v-9.234c0-2.734 2.172-4.9 4.922-4.9zm0-2.266c-3.964 0-7.188 3.209-7.188 7.166v11.5h23.724v-11.5c0-3.957-3.234-7.166-7.197-7.166z" fill="#ff690c" data-original="#000000" class=""></path><path d="m46.378 25.197c2.323 0 4.172 1.854 4.172 4.156 0 2.307-1.849 4.15-4.172 4.15-2.317 0-4.166-1.844-4.166-4.15 0-2.302 1.849-4.156 4.166-4.156zm0-2.265c-3.536 0-6.438 2.891-6.438 6.422 0 3.537 2.901 6.416 6.438 6.416 3.542 0 6.438-2.879 6.438-6.416-.001-3.532-2.896-6.422-6.438-6.422z" fill="#ff690c" data-original="#000000" class=""></path></g><path d="m39.603 40.863h12.307c1.433 0 2.375.438 3.026 1.152.651.713 1.047 1.789 1.047 3.254v7.355h4.688v2.863h-7.531v-6h-2.266v26.387h-10.235v-26.386h-2.271v9.891h-2.839v-14.109c0-1.465.396-2.541 1.047-3.254.652-.715 1.594-1.153 3.027-1.153zm0-2.265c-1.922 0-3.589.668-4.703 1.881-1.109 1.219-1.636 2.912-1.636 4.791v16.375h5.104v16.505h14.771v-20.396h9.797v-7.406h-4.688v-5.078c0-1.879-.531-3.572-1.646-4.791-1.109-1.213-2.766-1.881-4.693-1.881z" fill="#ff690c" data-original="#000000" class=""></path><path d="m13.878 5.238v40.934h14.912v-2.272h-12.641v-36.396h57.729v36.396h-12.338v2.272h14.609v-40.934z" fill="#ff690c" data-original="#000000" class=""></path></g></svg>